<?xml version="1.0" encoding="UTF-8"?>
<svg width="200px" height="200px" viewBox="0 0 200 200" version="1.1" xmlns="http://www.w3.org/2000/svg">
  <g stroke="none" stroke-width="1" fill="none" fill-rule="evenodd">
    <circle fill="#2874A6" cx="100" cy="100" r="100"></circle>
    <g transform="translate(40, 40)" fill="#FFFFFF">
      <path d="M120,20 L100,0 L80,20 L100,40 L120,20 Z M20,80 L0,60 L20,40 L40,60 L20,80 Z M100,100 L80,80 L100,60 L120,80 L100,100 Z M60,60 L40,40 L60,20 L80,40 L60,60 Z M60,100 L40,80 L60,60 L80,80 L60,100 Z M20,40 L0,20 L20,0 L40,20 L20,40 Z"></path>
    </g>
  </g>
</svg>