<?xml version="1.0" encoding="UTF-8"?>
<svg width="240" height="180" viewBox="0 0 240 180" xmlns="http://www.w3.org/2000/svg">
  <!-- Background -->
  <rect x="20" y="20" width="200" height="140" rx="10" fill="#f5f5f5" stroke="#4b0082" stroke-width="2"/>
  
  <!-- Party Symbol: Tree and Stars -->
  <!-- Tree Trunk -->
  <rect x="115" y="70" width="10" height="50" fill="#8b4513" stroke="#654321" stroke-width="1"/>
  
  <!-- Tree Branches -->
  <polygon points="120,30 90,70 150,70" fill="#228b22" stroke="#006400" stroke-width="1"/>
  <polygon points="120,40 95,75 145,75" fill="#228b22" stroke="#006400" stroke-width="1"/>
  <polygon points="120,50 100,80 140,80" fill="#228b22" stroke="#006400" stroke-width="1"/>
  
  <!-- Stars -->
  <g fill="#9370db" stroke="#8a2be2" stroke-width="1">
    <!-- Star 1 -->
    <path d="M60 50 L64 58 L73 59 L66 65 L68 74 L60 70 L52 74 L54 65 L47 59 L56 58 Z"/>
    <!-- Star 2 -->
    <path d="M180 50 L184 58 L193 59 L186 65 L188 74 L180 70 L172 74 L174 65 L167 59 L176 58 Z"/>
    <!-- Star 3 -->
    <path d="M120 100 L124 108 L133 109 L126 115 L128 124 L120 120 L112 124 L114 115 L107 109 L116 108 Z"/>
  </g>
  
  <!-- Party Name -->
  <text x="120" y="150" font-family="Arial" font-size="16" font-weight="bold" text-anchor="middle" fill="#4b0082">PARTY 2</text>
</svg>