<?xml version="1.0" encoding="UTF-8"?>
<svg width="240" height="180" viewBox="0 0 240 180" xmlns="http://www.w3.org/2000/svg">
  <!-- Background -->
  <rect x="20" y="20" width="200" height="140" rx="10" fill="#f0f8ff" stroke="#1e90ff" stroke-width="2"/>
  
  <!-- Party Symbol: Sun and Mountain -->
  <circle cx="120" cy="60" r="25" fill="#ffd700" stroke="#ff8c00" stroke-width="2"/>
  <!-- Sun rays -->
  <line x1="120" y1="25" x2="120" y2="15" stroke="#ffd700" stroke-width="3" stroke-linecap="round"/>
  <line x1="120" y1="95" x2="120" y2="105" stroke="#ffd700" stroke-width="3" stroke-linecap="round"/>
  <line x1="85" y1="60" x2="75" y2="60" stroke="#ffd700" stroke-width="3" stroke-linecap="round"/>
  <line x1="155" y1="60" x2="165" y2="60" stroke="#ffd700" stroke-width="3" stroke-linecap="round"/>
  <line x1="95" y1="35" x2="85" y2="25" stroke="#ffd700" stroke-width="3" stroke-linecap="round"/>
  <line x1="145" y1="85" x2="155" y2="95" stroke="#ffd700" stroke-width="3" stroke-linecap="round"/>
  <line x1="95" y1="85" x2="85" y2="95" stroke="#ffd700" stroke-width="3" stroke-linecap="round"/>
  <line x1="145" y1="35" x2="155" y2="25" stroke="#ffd700" stroke-width="3" stroke-linecap="round"/>

  <!-- Mountains -->
  <path d="M50 120 L90 80 L130 120 L170 70 L210 120 Z" fill="#4682b4" stroke="#2e5984" stroke-width="2"/>
  <path d="M50 120 L90 95 L130 120 Z" fill="#6495ed" stroke="#4169e1" stroke-width="1"/>
  
  <!-- Party Name -->
  <text x="120" y="150" font-family="Arial" font-size="16" font-weight="bold" text-anchor="middle" fill="#0066cc">PARTY 1</text>
</svg>